<?xml version="1.0" standalone="no"?>
<!DOCTYPE svg PUBLIC "-//W3C//DTD SVG 20010904//EN"
 "http://www.w3.org/TR/2001/REC-SVG-20010904/DTD/svg10.dtd">
<svg version="1.0" xmlns="http://www.w3.org/2000/svg"
 width="400.000000pt" height="400.000000pt" viewBox="0 0 400.000000 400.000000"
 preserveAspectRatio="xMidYMid meet">
<metadata>
Created by potrace 1.16, written by Peter Selinger 2001-2019
</metadata>
<g transform="translate(0.000000,400.000000) scale(0.100000,-0.100000)"
fill="#000000" stroke="none">
<path d="M1953 3933 c-76 -89 -90 -108 -150 -203 -85 -136 -157 -288 -206
-442 -52 -157 -57 -178 -92 -358 -33 -168 -42 -579 -14 -632 9 -17 44 -18 519
-18 296 0 511 4 514 9 4 5 11 76 16 157 30 439 -107 953 -352 1324 -62 94
-163 210 -182 210 -7 0 -31 -21 -53 -47z"/>
<path d="M0 2970 c0 -121 4 -220 8 -220 5 0 16 -28 26 -62 25 -93 82 -243 124
-328 l37 -75 598 -3 c328 -1 597 1 597 6 0 33 -173 245 -297 363 -271 258
-646 456 -1001 528 -101 21 -92 41 -92 -209z"/>
<path d="M3935 3180 c-16 -5 -55 -13 -85 -20 -147 -32 -375 -124 -514 -208
-37 -23 -70 -42 -73 -42 -13 0 -178 -123 -263 -196 -123 -105 -237 -230 -324
-350 -65 -92 -115 -85 556 -82 l592 3 27 55 c40 79 104 243 128 326 18 62 21
99 21 298 0 250 5 235 -65 216z"/>
<path d="M286 2121 c-3 -4 16 -39 42 -77 l47 -69 1615 -3 c888 -1 1625 0 1637
3 22 5 115 134 107 147 -7 11 -3442 10 -3448 -1z"/>
<path d="M534 1799 c-7 -12 44 -69 100 -110 l39 -29 1332 0 1333 0 58 43 c71
52 88 72 81 92 -6 13 -182 15 -1471 14 -1012 0 -1467 -3 -1472 -10z"/>
<path d="M912 1494 c4 -21 156 -114 293 -179 115 -55 221 -94 315 -114 30 -7
69 -17 86 -22 17 -5 50 -9 73 -9 l43 0 -4 158 c-1 86 -7 163 -11 170 -6 9 -98
12 -403 12 -356 0 -395 -2 -392 -16z"/>
<path d="M1765 1500 c-7 -12 15 -55 78 -150 67 -102 146 -200 161 -200 35 0
246 296 246 344 0 14 -28 16 -239 16 -144 0 -242 -4 -246 -10z"/>
<path d="M2315 1498 c-15 -49 -25 -134 -25 -223 l0 -105 44 0 c23 0 56 4 72 9
16 5 54 14 84 21 120 27 285 90 400 152 97 53 220 136 220 148 0 16 -790 13
-795 -2z"/>
<path d="M3370 766 c-130 -32 -195 -145 -144 -251 31 -67 79 -93 263 -143 82
-22 111 -54 91 -102 -17 -40 -56 -60 -122 -60 -69 0 -113 26 -135 81 l-16 41
-56 -7 c-31 -4 -59 -10 -62 -13 -12 -13 28 -113 57 -144 83 -88 288 -103 392
-29 68 50 97 142 71 222 -25 73 -86 113 -231 150 -137 35 -172 69 -123 119 22
21 35 25 89 25 71 0 95 -14 117 -67 12 -30 13 -30 68 -24 71 9 78 16 62 64
-28 78 -63 108 -160 138 -53 16 -98 16 -161 0z"/>
<path d="M511 711 c-11 -27 -21 -53 -21 -56 0 -4 -6 -21 -14 -38 -22 -49 -146
-372 -146 -380 0 -3 -11 -31 -25 -62 -14 -31 -23 -60 -20 -65 3 -6 33 -10 65
-10 66 0 71 4 100 98 7 24 22 48 32 53 24 13 227 9 236 -5 4 -6 19 -40 33 -76
l26 -65 58 -3 c32 -2 64 -1 71 2 10 4 0 39 -41 138 -29 73 -88 220 -130 326
l-78 192 -62 0 -63 0 -21 -49z m128 -234 c17 -48 31 -92 31 -98 0 -5 -34 -9
-75 -9 -56 0 -75 3 -75 13 0 15 54 170 66 188 10 17 19 1 53 -94z"/>
<path d="M990 753 c-1 -27 -2 -622 -1 -636 1 -18 13 -19 209 -15 217 3 224 5
280 53 36 31 55 74 56 130 0 62 -26 112 -71 134 -18 9 -33 19 -33 22 0 3 13
23 30 44 74 93 52 203 -51 255 -34 18 -59 20 -229 20 -104 0 -190 -3 -190 -7z
m354 -124 c36 -28 37 -91 2 -114 -25 -17 -140 -27 -193 -18 l-33 5 0 67 c0 37
3 71 7 74 3 4 48 7 98 7 78 0 96 -3 119 -21z m32 -283 c32 -36 29 -82 -7 -108
-27 -20 -176 -36 -224 -24 -24 6 -25 10 -25 87 l0 81 116 -4 c113 -3 116 -4
140 -32z"/>
<path d="M1652 433 l3 -328 60 0 60 0 3 328 2 327 -65 0 -65 0 2 -327z"/>
<path d="M1915 747 c-3 -7 -4 -154 -3 -327 l3 -315 170 -3 c94 -2 189 0 211 3
60 8 120 51 144 102 43 91 16 174 -75 228 -14 9 -12 14 18 47 76 83 47 212
-58 263 -44 20 -403 23 -410 2z m354 -114 c33 -28 37 -75 9 -107 -21 -25 -30
-27 -117 -32 -62 -3 -98 -1 -107 7 -14 12 -21 129 -7 142 3 4 50 7 104 7 77 0
101 -3 118 -17z m-6 -264 c45 -12 62 -42 53 -92 -4 -24 -14 -38 -34 -47 -36
-17 -208 -26 -225 -11 -14 11 -22 109 -12 141 6 18 16 20 93 20 48 0 104 -5
125 -11z"/>
<path d="M2750 733 c-22 -59 -130 -340 -150 -388 -59 -144 -89 -230 -81 -238
4 -4 34 -7 66 -5 59 3 62 5 82 58 6 14 17 41 26 61 l16 37 88 0 c144 1 157 -3
170 -46 6 -20 19 -54 27 -74 l16 -38 63 0 c35 0 66 2 69 5 3 3 -52 151 -122
328 l-128 322 -66 3 c-64 3 -66 2 -76 -25z m114 -245 c20 -51 36 -99 36 -105
0 -9 -22 -13 -75 -13 -41 0 -75 3 -75 8 -1 16 65 202 72 202 3 0 23 -42 42
-92z"/>
</g>
</svg>
